<?xml version="1.0" encoding="utf-8"?>
<!-- Generator: Adobe Illustrator 28.3.0, SVG Export Plug-In . SVG Version: 6.00 Build 0)  -->
<svg version="1.1" id="Layer_1" xmlns="http://www.w3.org/2000/svg" xmlns:xlink="http://www.w3.org/1999/xlink" x="0px" y="0px"
	 viewBox="0 0 88.62 79.01" style="enable-background:new 0 0 88.62 79.01;" xml:space="preserve">
<style type="text/css">
	.st0{fill:#3498DB;}
</style>
<g>
	<path class="st0" d="M50.54,57.94V0l12.75,14.21c0.75,0.83,1.16,1.91,1.16,3.03v40.7c0,0.98-0.79,1.77-1.77,1.77H52.31
		C51.34,59.71,50.54,58.91,50.54,57.94z"/>
	<path class="st0" d="M15.53,0h35.01l-8.9,13.51c-0.39,0.59-1.06,0.95-1.77,0.95H13.86V1.68C13.86,0.75,14.61,0,15.53,0z"/>
	<path class="st0" d="M13.91,14.46v45.25L0.78,48.62C0.28,48.2,0,47.59,0,46.95V16.08c0-0.9,0.73-1.62,1.62-1.62H13.91z"/>
	<path class="st0" d="M74.71,21.94v57.07l12.92-14.36c0.63-0.7,0.98-1.61,0.98-2.56V21.94c0-1.36-1.1-2.46-2.46-2.46h-8.99
		C75.81,19.49,74.71,20.59,74.71,21.94z"/>
	<path class="st0" d="M39.76,79.01h34.96l-8.79-12.5c-0.46-0.65-1.2-1.04-1.99-1.04h-25.9v11.81C38.03,78.24,38.8,79.01,39.76,79.01
		z"/>
	<path class="st0" d="M38.03,65.48V19.49L25.26,30.45c-0.72,0.62-1.14,1.52-1.14,2.47v30.2c0,1.3,1.05,2.35,2.35,2.35H38.03z"/>
</g>
</svg>
